/* XPM */
static char *result[] = {
/* columns rows colors chars-per-pixel */
"32 32 150 2 ",
"   c #252524",
".  c #262625",
"X  c #272726",
"o  c #282827",
"O  c #292928",
"+  c #2A2A29",
"@  c #2B2B2A",
"#  c #2C2C2B",
"$  c #2D2D2C",
"%  c #2E2E2D",
"&  c #2F2F2E",
"*  c #333332",
"=  c #343433",
"-  c #373736",
";  c #383837",
":  c #393938",
">  c #393939",
",  c #444444",
"<  c #454544",
"1  c #464645",
"2  c #474746",
"3  c #484847",
"4  c #484848",
"5  c #4A4A49",
"6  c #4B4B4A",
"7  c #4B4B4B",
"8  c #4C4C4B",
"9  c #4D4D4C",
"0  c #4E4E4D",
"q  c #4E4E4E",
"w  c #4F4F4E",
"e  c #50504F",
"r  c #515150",
"t  c #525251",
"y  c #545453",
"u  c #555554",
"i  c #565655",
"p  c #575756",
"a  c gray34",
"s  c #585857",
"d  c #585858",
"f  c #595958",
"g  c #5C5C5B",
"h  c #5D5D5C",
"j  c #636362",
"k  c gray39",
"l  c #676767",
"z  c #686867",
"x  c #6D6D6C",
"c  c #6D6D6D",
"v  c gray43",
"b  c #6F6F6E",
"n  c #6F6F6F",
"m  c gray44",
"M  c #717170",
"N  c gray45",
"B  c gray46",
"V  c #787877",
"C  c #797978",
"Z  c #7A7A79",
"A  c #7B7B7A",
"S  c #7B7B7B",
"D  c #7C7C7B",
"F  c gray49",
"G  c #7E7E7D",
"H  c #7E7E7E",
"J  c gray50",
"K  c #818180",
"L  c #818181",
"P  c #838383",
"I  c #858584",
"U  c gray53",
"Y  c #888887",
"T  c gray57",
"R  c #929292",
"E  c #939392",
"W  c #939393",
"Q  c gray58",
"!  c #959594",
"~  c #959595",
"^  c #979797",
"/  c #989897",
"(  c #989898",
")  c #9C9C9B",
"_  c gray61",
"`  c #9D9D9D",
"'  c #9E9E9D",
"]  c gray62",
"[  c #9F9F9E",
"{  c #A0A09F",
"}  c #A0A0A0",
"|  c #A2A2A2",
" . c #A4A4A4",
".. c #A5A5A4",
"X. c gray65",
"o. c gray66",
"O. c gray68",
"+. c #AEAEAE",
"@. c #AFAFAE",
"#. c gray69",
"$. c #B1B1B1",
"%. c gray70",
"&. c #B4B4B3",
"*. c #B5B5B4",
"=. c gray71",
"-. c #B6B6B6",
";. c #B7B7B6",
":. c #B7B7B7",
">. c #B8B8B7",
",. c gray72",
"<. c #B9B9B9",
"1. c gray73",
"2. c #BBBBBB",
"3. c #BCBCBC",
"4. c gray74",
"5. c gray",
"6. c gray75",
"7. c #C0C0C0",
"8. c #C1C1C1",
"9. c gray76",
"0. c #C3C3C3",
"q. c gray77",
"w. c #C5C5C5",
"e. c gray78",
"r. c #C8C8C8",
"t. c #CECECE",
"y. c gray81",
"u. c #D0D0D0",
"i. c gray82",
"p. c #D2D2D2",
"a. c #D2D2D3",
"s. c #D5D5D5",
"d. c gray84",
"f. c #D7D7D7",
"g. c #D8D8D8",
"h. c gray85",
"j. c #DADADA",
"k. c #DADADB",
"l. c gray86",
"z. c gainsboro",
"x. c gray87",
"c. c #DEDEDF",
"v. c #E1E1E1",
"b. c #E2E2E2",
"n. c gray89",
"m. c #E4E4E4",
"M. c gray90",
"N. c #E6E6E6",
"B. c #E7E7E7",
"V. c None",
/* pixels */
"V.V.V.V.V.V.V.V.V.V.V.V.V.V.V.V.V.V.V.V.V.V.V.V.V.V.V.V.V.V.V.V.",
"V.V.V.V.V.V.V.V.V.V.V.V.V.V.V.V.V.V.V.V.V.V.V.V.V.V.V.V.V.V.V.V.",
"V.V.V.V.V.V.V.V.V.V.V.V.V.V.V.V.V.V.V.V.V.V.V.V.V.V.V.V.V.V.V.V.",
"V.V.V.V.V.V.V.V.V.V.V.V.V.V.V.V.V.V.V.V.V.V.V.V.V.V.V.V.V.V.V.V.",
"V.V.V.V.V.V.V.V.V.V.V.V.V.V.& % # @ V.V.V.V.V.V.@ # % & V.V.V.V.",
"V.V.V.V.V.V.V.V.V.V.V.V.V.V.% - 2 9 V.V.V.V.V.V.8 2 - % V.V.V.V.",
"V.V.V.V.V.V.V.V.V.V.V.V.V.V.# 3 D L 6 . X X . 6 K S 3 # V.V.V.V.",
"V.V.V.V.V.V.V.V.V.V.V.V.V.V.@ r / ..N f d s p B +.| y + V.V.V.V.",
"V.V.V.V.V.V.V.V.V.V.V.V.V.V.@ w ! 1.<.;.=.&.%.7.d.$.d + V.V.V.V.",
"V.V.V.V.V.V.V.V.V.V.V.V.V.V.@ w W ,.>.6.i.k.l.p.7.T 0 @ V.V.V.V.",
"V.V.V.V.V.V.V.V.V.V.V.V.V.V.@ e ~ } v n X.w.w.o.M 5 - % V.V.V.V.",
"V.V.V.V.V.V.V.V.V.V.V.V.V.V.@ e ~ } x c  .0.0.X.m 5 - % V.V.V.V.",
"V.V.V.V.V.V.V.V.V.V.V.V.V.V.@ w W :.=.3.t.f.f.u.6.T 0 @ V.V.V.V.",
"V.V.V.V.V.V.V.V.V.V.V.V.V.V.O 9 R 8.a.h.f.d.d.j.c.#.a + V.V.V.V.",
"V.V.V.V.V.V.V.V.V.V.V.V.V.V.o 8 R 2.7.8.7.6.6.0.e.[ t + V.V.V.V.",
"V.V.V.V.V.V.V.V.V.V.V.V.V.V.5 l ) 1.5.6.6.6.6.=.} H 7 @ V.V.V.V.",
"V.V.V.V.V.V.V.V.V.V.V.V.@ 8 J ] O.4.t.d.s.f.g.&.b 4 V.V.V.V.V.V.",
"V.V.V.V.V.V.V.V.V.V.V.V.@ w ~ 1.-.6.d.b.b.m.M.%.p . V.V.V.V.V.V.",
"V.V.V.V.V.V.V.V.V.V.V.V.@ w Q <.-.6.d.b.v.n.M.%.a X V.V.V.V.V.V.",
"V.V.V.V.V.V.V.V.V.V.V.V.O 9 W 1.5.r.j.n.v.n.N.*.a X V.V.V.V.V.V.",
"V.V.V.V.V.V.V.V.@ # % # O 8 E 7.y.j.v.n.v.m.B.=.p   V.V.V.V.V.V.",
"V.V.V.V.V.V.V.V.q 4 - = < z _ 0.h.f.6.6.d.g.9.' b y V.V.V.V.V.V.",
"V.V.V.V.V.V.. 8 P G 2 , Z ] +.9.j.6.V C 8.8.Z v { _ a O V.V.V.V.",
"V.V.V.V.V.V.8 j U F 1 0 ^ 3.<.q.z.*.y i ,.,.i p 2.3.g O V.V.V.V.",
"V.V.V.V.@ q P Y k < * e ( 3.1.w.x.-.u p <.<.p s 2.3.h O V.V.V.V.",
"V.V.V.V.# 4 G I 9 X + 2 A ~ Q ` @.R 8 0 ! ! 0 0 ! ~ e @ V.V.V.V.",
"V.V.V.V.% - 4 w V.V.$ - 2 w w t a 0 ; : w w : : w w > % V.V.V.V.",
"V.V.V.V.& % # @ V.V.& % # @ @ + + @ % % @ @ % % @ @ % & V.V.V.V.",
"V.V.V.V.V.V.V.V.V.V.V.V.V.V.V.V.V.V.V.V.V.V.V.V.V.V.V.V.V.V.V.V.",
"V.V.V.V.V.V.V.V.V.V.V.V.V.V.V.V.V.V.V.V.V.V.V.V.V.V.V.V.V.V.V.V.",
"V.V.V.V.V.V.V.V.V.V.V.V.V.V.V.V.V.V.V.V.V.V.V.V.V.V.V.V.V.V.V.V.",
"V.V.V.V.V.V.V.V.V.V.V.V.V.V.V.V.V.V.V.V.V.V.V.V.V.V.V.V.V.V.V.V."
};
