/* XPM */
static char *result[] = {
/* columns rows colors chars-per-pixel */
"32 32 169 2 ",
"   c black",
".  c #020202",
"X  c gray1",
"o  c #040404",
"O  c #151515",
"+  c #1B1B1B",
"@  c gray11",
"#  c #1D1D1D",
"$  c #222222",
"%  c #232323",
"&  c #343434",
"*  c #343535",
"=  c #373737",
"-  c gray23",
";  c #414141",
":  c gray27",
">  c #505050",
",  c #515151",
"<  c gray32",
"1  c #535353",
"2  c gray33",
"3  c #555555",
"4  c #565656",
"5  c gray34",
"6  c #585858",
"7  c gray35",
"8  c #5B5B5B",
"9  c #5D5D5D",
"0  c gray37",
"q  c #5F5F5F",
"w  c gray38",
"e  c #626262",
"r  c gray39",
"t  c #656565",
"y  c #676767",
"u  c #686868",
"i  c DimGray",
"p  c #6A6A6A",
"a  c gray42",
"s  c #6C6C6C",
"d  c gray43",
"f  c gray44",
"g  c #747474",
"h  c gray46",
"j  c gray47",
"k  c #797979",
"l  c gray48",
"z  c #7B7B7B",
"x  c #7B7C7C",
"c  c gray49",
"v  c #808080",
"b  c #818181",
"n  c gray51",
"m  c #838383",
"M  c #848484",
"N  c gray52",
"B  c #868686",
"V  c #868787",
"C  c gray53",
"Z  c #898989",
"A  c gray54",
"S  c #8B8B8B",
"D  c #8D8D8D",
"F  c #8E8E8E",
"G  c #988D8D",
"H  c #909090",
"J  c #939393",
"K  c gray58",
"L  c #959595",
"P  c #979797",
"I  c #989898",
"U  c gray60",
"Y  c #9A9A9A",
"T  c #9B9B9B",
"R  c #9B9C9C",
"E  c gray61",
"W  c #9C9D9D",
"Q  c #9D9D9D",
"!  c gray62",
"~  c #9F9F9F",
"^  c #A09495",
"/  c #A2A2A2",
"(  c #A4A4A4",
")  c gray65",
"_  c #A7A7A7",
"`  c gray66",
"'  c #A9A9A9",
"]  c #AAAAAA",
"[  c gray67",
"{  c gray68",
"}  c #AEAEAE",
"|  c #AFAFAF",
" . c gray69",
".. c #B2B2B2",
"X. c gray70",
"o. c #B4B4B4",
"O. c gray72",
"+. c #B9B9B9",
"@. c #BBBBBB",
"#. c #BCBCBC",
"$. c gray74",
"%. c gray",
"&. c gray75",
"*. c #CB9DA0",
"=. c #CB9EA1",
"-. c #CF9DA1",
";. c #CF9EA2",
":. c #F49DA3",
">. c #F49EA4",
",. c #E9B8BB",
"<. c #E8BBBE",
"1. c #EDBCBF",
"2. c #EDBFC2",
"3. c #C0C0C0",
"4. c #C1C1C1",
"5. c gray76",
"6. c #C3C3C3",
"7. c gray77",
"8. c #C5C5C5",
"9. c #C6C6C6",
"0. c gray78",
"q. c #C8C8C8",
"w. c gray79",
"e. c #CACACA",
"r. c #CBCBCB",
"t. c gray80",
"y. c #CDCDCD",
"u. c #CECECE",
"i. c gray81",
"p. c #D0D0D0",
"a. c #D2D2D2",
"s. c LightGray",
"d. c gray83",
"f. c #D5D5D5",
"g. c gray84",
"h. c #DED3D4",
"j. c #DFD3D4",
"k. c #DFD5D5",
"l. c #D8D8D8",
"z. c gray85",
"x. c #DADADA",
"c. c gainsboro",
"v. c #DCDDDD",
"b. c #DDDDDD",
"n. c gray87",
"m. c #DFDFDF",
"M. c #E0D5D6",
"N. c #E8D5D6",
"B. c #ECD6D7",
"V. c #E7DCDC",
"C. c #E7DCDD",
"Z. c gray88",
"A. c #E1E1E1",
"S. c #E2E2E2",
"D. c gray89",
"F. c #E4E4E4",
"G. c gray90",
"H. c #E5E6E5",
"J. c #E5E6E6",
"K. c #E6E6E6",
"L. c #E6E7E6",
"P. c #E6E7E7",
"I. c #E7E7E7",
"U. c gray91",
"Y. c #E9E9E9",
"T. c #E9EAEA",
"R. c #EAEAEA",
"E. c gray92",
"W. c None",
/* pixels */
"W.W.W.W.W.W.1 1 1 W.W.W.W.W.W.W.W.W.W.W.W.W.W.1 1 1 W.W.W.W.W.W.",
"W.W.W.W.W.W.< < < W.W.W.W.W.W.W.W.W.W.W.W.W.W.> , > W.W.W.W.W.W.",
"W.W.W.W.W.W.i f p W.W.W.W.W.W.W.W.W.W.W.W.W.W.v H n W.W.W.W.W.W.",
"W.W.W.W.1 < k T z , , W.W.W.W.W.W.W.W.W.W.< , / E.' < 1 W.W.W.W.",
"W.W.W.W.1 < b ' H d a W.W.W.W.W.W.W.W.W.W.0 q ` R.' < 1 W.W.W.W.",
"W.W.W.W.1 < ~ S.n.b.[ 1 1 W.W.W.W.W.W.1 1 l K 3.Y.' < 1 W.W.W.W.",
"W.W.W.W.1 , / U.G.U.| 1 < W.W.W.W.W.W.< < z U 5.Y.' < 1 W.W.W.W.",
"W.W.W.W.1 , / I.G.I.%.z h 5 1 1 1 1 3 g l ) 8.g.U.' < 1 W.W.W.W.",
"W.W.W.W.< , / I.G.K.w.Y A 4 < < < < 3 C Y 9.U.K.U.' , < W.W.W.W.",
"W.W.W.W.q 0 ` I.G.K.u.` I r q q q q e L _ r.K.G.I.} q q W.W.W.W.",
"W.W.1 3 n K 3.K.G.G.D.Z.i.I K K K K P y.A.D.G.G.K.7.K N 4 1 W.W.",
"W.W.1 3 N Y 5.K.G.G.G.K.g.~ T T T T ! s.K.G.G.G.K.9.E Z 4 1 W.W.",
"W.W.1 3 N U 5.K.G.G.G.G.Z.p.i.i.i.i.p.m.G.G.G.G.G.c.p. .6 1 W.W.",
"W.W.1 3 M I 5.K.K.Y.I.G.G.K.K.K.K.K.K.G.G.I.Y.I.G.K.U.5.6 1 W.W.",
"W.W.1 3 J { r.I.y.' 3.G.G.G.G.G.G.G.G.G.G.6.' e.K.G.I.4.6 1 W.W.",
"W.W.1 4 +.G.F.Y.S X 7 G.G.G.G.G.G.G.G.G.K.r . v Y.G.I.4.6 < W.W.",
"W.W.3 7 #.I.G.Y.C   2 G.G.G.G.G.G.G.G.G.K.q   c Y.G.I.5.8 3 W.W.",
"1 4 / @.l.K.G.Y.C   3 G.G.G.G.G.G.G.G.G.K.q   c Y.G.K.x.#.) 6 1 ",
"1 4 #.E.I.K.J.T.V   < G.G.G.G.U.U.G.G.G.K.9   x T.J.K.I.E.5.6 1 ",
"1 4 { d.a.a.h.B.^ * j G.G.G.n.X...b.K.G.K.v & G B.j.a.a.d...5 1 ",
"1 2 B Q E R *.:.,.v.Z.G.G.I.r.$ + 8.U.G.G.Z.v.<.>.-.R E Q Z 4 1 ",
"1 3 C ! Q W =.>.1.J.G.G.D.c.4.% # @.c.S.G.G.J.2.>.;.W Q ! A 4 1 ",
"1 4 | g.d.d.k.N.V.G.G.I.&.- ; ( ` : = O.U.G.G.C.N.M.d.d.g.o.6 1 ",
"1 4 #.R.I.I.P.J.J.G.G.U.X.o O t.s.@   ] U.G.G.H.J.L.I.I.R.5.6 1 ",
"1 3 ) e.q.q.l.G.G.G.G.I.0.0 u f.z.s 8 5.I.G.G.G.K.z.q.q.e.[ 5 1 ",
"1 2 N Y U I 5.K.G.G.G.G.G.G.G.G.G.G.G.G.G.G.G.G.K.9.I U Y C 3 1 ",
"1 2 m P T E 7.K.G.G.G.G.G.G.G.G.G.G.G.G.G.G.G.G.K.0.E T P B 3 1 ",
"W.W.w t X.f.b.G.G.G.G.G.G.G.G.G.G.G.G.G.G.G.G.G.G.n.f.O.y w W.W.",
"W.W.< 3 $.R.I.I.I.I.I.I.I.I.I.I.I.I.I.I.I.I.I.I.I.I.R.6.5 < W.W.",
"W.W.W.W.D I P P P P P P P P P P P P P P P P P P P P I F W.W.W.W.",
"W.W.W.W., , , , , , , , , , , , , , , , , , , , , , , , W.W.W.W.",
"W.W.W.W.1 1 1 1 1 1 1 1 1 1 1 1 1 1 1 1 1 1 1 1 1 1 1 1 W.W.W.W."
};
