/* XPM */
static char *result[] = {
/* columns rows colors chars-per-pixel */
"32 32 239 2 ",
"   c #1F0E09",
".  c #1F0E0A",
"X  c #1F0F0B",
"o  c #1E0F0C",
"O  c #1F0F0C",
"+  c #1F100C",
"@  c #1F1211",
"#  c #1F1212",
"$  c #1C1114",
"%  c #1E1417",
"&  c #1E151A",
"*  c #20100B",
"=  c #20100C",
"-  c #20110E",
";  c #22130F",
":  c #25140D",
">  c #25140E",
",  c #231411",
"<  c #2B1811",
"1  c #2B1912",
"2  c #2B1A12",
"3  c #2E1A11",
"4  c #2C1912",
"5  c #2E1A12",
"6  c #2E1C12",
"7  c #2E1D13",
"8  c #2F1D13",
"9  c #281A17",
"0  c #2D1D18",
"q  c #2D1D19",
"w  c #321D14",
"e  c #341F15",
"r  c #3C2519",
"t  c #1B1723",
"y  c #1C1721",
"u  c #191725",
"i  c #1B1724",
"p  c #1A1726",
"a  c #1A1827",
"s  c #16192F",
"d  c #1A1928",
"f  c #181A2E",
"g  c #191B2F",
"h  c #181C32",
"j  c #181C33",
"k  c #1E2336",
"l  c #1E2436",
"z  c #2F2426",
"x  c #2F2427",
"c  c #2E262C",
"v  c #2E262D",
"b  c #2E272E",
"n  c #302527",
"m  c #31282E",
"M  c #382D2D",
"N  c #392E2C",
"B  c #3D302C",
"V  c #3D302D",
"C  c #222130",
"Z  c #362C30",
"A  c #302C38",
"S  c #3E3433",
"D  c #3D3435",
"F  c #432B1D",
"G  c #432C1F",
"H  c #4A2F1D",
"J  c #4B3120",
"K  c #483124",
"L  c #483225",
"P  c #483227",
"I  c #503421",
"U  c #503422",
"Y  c #503522",
"T  c #503523",
"R  c #563924",
"E  c #573924",
"W  c #563A26",
"Q  c #573A26",
"!  c #583A25",
"~  c #583B27",
"^  c #593C27",
"/  c #513829",
"(  c #5A3D28",
")  c #5A3E2A",
"_  c #473733",
"`  c #483733",
"'  c #483833",
"]  c #413738",
"[  c #413838",
"{  c #4D3D38",
"}  c #4E3E39",
"|  c #5E402A",
" . c #5F402A",
".. c #4D403F",
"X. c #544037",
"o. c #544138",
"O. c #55443E",
"+. c #55443F",
"@. c #56443E",
"#. c #56453F",
"$. c #6A492E",
"%. c #6A492F",
"&. c #6B4A31",
"*. c #6C4B32",
"=. c #6D4D34",
"-. c #735035",
";. c #745135",
":. c #745136",
">. c #755236",
",. c #755338",
"<. c #765338",
"1. c #765438",
"2. c #293147",
"3. c #2F374E",
"4. c #30354C",
"5. c #34394F",
"6. c #333B52",
"7. c #423D45",
"8. c #433F48",
"9. c #37405B",
"0. c #37405C",
"q. c #3E4964",
"w. c #474349",
"e. c #554540",
"r. c #574540",
"t. c #564641",
"y. c #564642",
"u. c #574642",
"i. c #5A4943",
"p. c #45485A",
"a. c #44485B",
"s. c #45485B",
"d. c #504F5F",
"f. c #595057",
"g. c #5B5258",
"h. c #614E45",
"j. c #624F46",
"k. c #625048",
"l. c #645149",
"z. c #645349",
"x. c #6A584E",
"c. c #796353",
"v. c #7B6454",
"b. c #7A6455",
"n. c #7C6556",
"m. c #474C62",
"M. c #414C67",
"N. c #484F60",
"B. c #4C4E60",
"V. c #484E64",
"C. c #4E5669",
"Z. c #4D536C",
"A. c #525162",
"S. c #5D5965",
"D. c #53596F",
"F. c #575C6E",
"G. c #4A5573",
"H. c #4A5674",
"J. c #4E5A79",
"K. c #575C72",
"L. c #545C77",
"P. c #585B70",
"I. c #585C71",
"U. c #585E77",
"Y. c #5A6179",
"T. c #596379",
"R. c #5B627A",
"E. c #5C627A",
"W. c #5A637E",
"Q. c #61657B",
"!. c #62657B",
"~. c #62667B",
"^. c #61667C",
"/. c #62667D",
"(. c #62677D",
"). c #62677E",
"_. c #62677F",
"`. c #63687E",
"'. c #63687F",
"]. c #856D5B",
"[. c #866E5B",
"{. c #876E5C",
"}. c #876F5C",
"|. c #886F5C",
" X c #576484",
".X c #5D6682",
"XX c #5C6787",
"oX c #5E6A89",
"OX c #5C6A8C",
"+X c #5D6B8C",
"@X c #5C6A8D",
"#X c #5D6B8E",
"$X c #5E6C8E",
"%X c #5E6D8F",
"&X c #5F6D8F",
"*X c #616883",
"=X c #626984",
"-X c #636A84",
";X c #656D88",
":X c #6A7289",
">X c #717587",
",X c #727586",
"<X c #737586",
"1X c #747789",
"2X c #747889",
"3X c #657192",
"4X c #677394",
"5X c #657499",
"6X c #677599",
"7X c #66769B",
"8X c #68789D",
"9X c #69789D",
"0X c #69799E",
"qX c #6A799E",
"wX c #7B89A8",
"eX c #7D8CAC",
"rX c #91929A",
"tX c #96959B",
"yX c #97969B",
"uX c #97969D",
"iX c #98979E",
"pX c #8C95A6",
"aX c #959DAA",
"sX c #98A0AD",
"dX c #9CA5B3",
"fX c #A0A0A4",
"gX c #A1A1A4",
"hX c #A6A4A5",
"jX c #A7A5A6",
"kX c #A8A5A6",
"lX c #A8A6A6",
"zX c #A9A6A6",
"xX c #A9A7A7",
"cX c #A5B0C2",
"vX c #A6B2C4",
"bX c #B8C2CE",
"nX c #BAC3CE",
"mX c #BAC4CF",
"MX c None",
/* pixels */
"MXMXMXMXMXMXMXMXMXMXMXMXMXMXMXMXMXMXMXMXMXMXMXMXMXMXMXMXMXMXMXMX",
"MXMXMXMXMXMXMXMXMXMXMXMXMXMXMXMXMXMXMXMXMXMXMXMXMXMXMXMXMXMXMXMX",
"MXMXMXMX= X .     . X = = = = = = = = = = X .     . X = MXMXMXMX",
"MXMXMXMX< q z m m x q 1 1 4 4 4 4 4 4 1 1 q x m m z q < MXMXMXMX",
"MXMX= < r ' d.L.L.d._ F F G G G G G G F F _ d.L.L.d.' r < = MXMX",
"MXMX+ 5 J l.2XeXeX1Xk.^ ( ) ) ) ) ) ) ( ^ k.1XeXeX2Xl.J 5 + MXMX",
"MXMXO w ~ n.iXvXvXuXb.&.*.=.=.=.=.=.=.*.&.b.uXvXvXiXn.~ w O MXMX",
"MXMXo e  .|.xXmXmXlX[.;.>.1.1.1.1.1.1.>.;.[.lXmXmXxX|. .e o MXMX",
"MXMXo e  .}.zXnXnXjX].;.>.<.<.<.<.<.<.>.;.].jXnXnXzX}. .e o MXMX",
"MXMXo e | {.kXbXbXhX].-.:.,.,.,.,.,.,.:.-.].hXbXbXkX{.| e o MXMX",
"MXMXo e | {.kXbXbXhX].-.:.,.,.,.,.,.,.:.-.].hXbXbXkX{.| e o MXMX",
"MXMXo e  .}.zXnXnXjX].;.>.<.<.<.<.<.<.>.;.].jXnXnXzX}. .e o MXMX",
"MXMXo e  .|.xXmXmXlX[.;.>.1.1.1.1.1.1.>.;.[.lXmXmXxX|. .e o MXMX",
"MXMXO w ! v.yXcXcXtXc.$.%.&.&.&.&.&.&.%.$.c.tXcXcXyXv.! w O MXMX",
"MXMX+ 3 H j.<XwXwX,Xh.E R W Q Q Q Q W R E h.,XwXwX<Xj.H 3 + MXMX",
"MXMXX 0 ` g.-X7X7X*Xf.i.z.x.x.x.x.x.x.z.i.f.*X7X7X-Xg.` 0 X MXMX",
"MXMX  n A.;X4X6X6X3X=X>XrXgXgXfXfXgXgXrX>X=X3X6X6X4X;XA.n   MXMX",
"MXMX  x B..XoX+X+XXXW.:XpXdXsXaXaXsXdXpX:XW.XX+X+XoX.XB.x   MXMX",
"MXMX* 9 M 8.V.G.G.m.7.w.F.T.C.N.N.C.T.F.w.7.m.G.G.V.8.M 9 * MXMX",
"MXMX- > 6 N a.H.H.p.B V s.q.2.l l 2.q.s.V B p.H.H.a.N 6 > - MXMX",
"MXy @ : 6 S D.&X%XP.{ } I.J.3.k k 3.J.I.} { P.%X&XD.S 6 : @ y MX",
"MXi # > 7 ] E.0X0X~.@.r.`.@XM.6.6.M.@X`.r.@.~.0X0XE.] 7 > # i MX",
"MXi # > 7 ] R.9X9X!.O.#.).5XOX X XOX5X).#.O.!.9X9XR.] 7 > # i MX",
"MXt # : 7 ] R.9X8XQ.+.X.S._.'.`.`.'._.S.X.+.Q.8X9XR.] 7 : # t MX",
"MXt # : 8 [ R.9X8X^.e./ o.y.y.u.u.y.y.o./ e.^.8X9XR.[ 8 : # t MX",
"MXa % , 2 D Y.0X9X/.t.U I Y Y Y Y Y Y I U t./.9X0XY.D 2 , % a MX",
"j g d & ; Z U.qX0X(.t.Y Y T T T T T T Y Y t.(.0XqXU.Z ; & d g j ",
"MXMXMXu $ b Z.$X#XK...K L P P P P P P L K ..K.#X$XZ.b $ u MXMXMX",
"MXMXMXf p C 4.0.9.5.A c c v v v v v v c c A 5.9.0.4.C p f MXMXMX",
"MXMXMXMXMXMXMXMXMXMXMXMXMXMXMXMXMXMXMXMXMXMXMXMXMXMXMXMXMXMXMXMX",
"MXMXMXMXMXMXMXs s MXMXMXMXMXMXMXMXMXMXMXMXMXMXs s MXMXMXMXMXMXMX",
"MXMXMXMXMXMXMXh h h h h h h h h h h h h h h h h h MXMXMXMXMXMXMX"
};
