/* XPM */
static char *result[] = {
/* columns rows colors chars-per-pixel */
"32 32 179 2 ",
"   c #445473",
".  c #455474",
"X  c #455574",
"o  c #455575",
"O  c #465474",
"+  c #465575",
"@  c #455675",
"#  c #465675",
"$  c #475675",
"%  c #495A77",
"&  c #495B78",
"*  c #4A5B78",
"=  c #4B5B78",
"-  c #4A5B79",
";  c #4B5B79",
":  c #495E81",
">  c #495F81",
",  c #4A5E80",
"<  c #4A5F81",
"1  c #495F82",
"2  c #4A5F82",
"3  c #496081",
"4  c #496082",
"5  c #4A6082",
"6  c #4B6082",
"7  c #4B6182",
"8  c #4E698E",
"9  c #4E6A8E",
"0  c #4F6B8F",
"q  c #566E83",
"w  c #516A87",
"e  c #566D84",
"r  c #576E84",
"t  c #576F86",
"y  c #586F84",
"u  c #516988",
"i  c #516A88",
"p  c #526A88",
"a  c #526B89",
"s  c #54728F",
"d  c #516E91",
"f  c #516F91",
"g  c #536F90",
"h  c #526F92",
"j  c #527091",
"k  c #537091",
"l  c #517095",
"z  c #507195",
"x  c #507096",
"c  c #517096",
"v  c #527197",
"b  c #537296",
"n  c #527297",
"m  c #537397",
"M  c #53769D",
"N  c #53779D",
"B  c #53779E",
"V  c #53789D",
"C  c #5B7C9A",
"Z  c #5B7C9B",
"A  c #5B7D9B",
"S  c #5C7D9A",
"D  c #5B7D9C",
"F  c #567EA7",
"G  c #567FA7",
"H  c #577FA7",
"J  c #587DA2",
"K  c #587EA2",
"L  c #597EA3",
"P  c #587FA3",
"I  c #597FA3",
"U  c #5F8098",
"Y  c #5E8099",
"T  c #658191",
"R  c #608095",
"E  c #608096",
"W  c #618096",
"Q  c #608196",
"!  c #618097",
"~  c #618197",
"^  c #628196",
"/  c #618198",
"(  c #618199",
")  c #638398",
"_  c #638498",
"`  c #638599",
"'  c #648699",
"]  c #658699",
"[  c #64859A",
"{  c #698C9F",
"}  c #5780A7",
"|  c #5980A3",
" . c #5B85AA",
".. c #5B85AB",
"X. c #5B86AC",
"o. c #5B89B3",
"O. c #5E90BC",
"+. c #5E91BC",
"@. c #5F93BF",
"#. c #668BA4",
"$. c #668CA4",
"%. c #6A8CA0",
"&. c #698EA2",
"*. c #698EA3",
"=. c #698FA3",
"-. c #688FA4",
";. c #6A8EA4",
":. c #658EAA",
">. c #628DAD",
",. c #638EAC",
"<. c #638EAD",
"1. c #638EAE",
"2. c #648EAD",
"3. c #648FAD",
"4. c #648FAE",
"5. c #6790AA",
"6. c #6690AB",
"7. c #6791AB",
"8. c #6993AD",
"9. c #6491B2",
"0. c #6491B3",
"q. c #6492B4",
"w. c #6493B5",
"e. c #6996B2",
"r. c #6996B3",
"t. c #6A96B3",
"y. c #6996B4",
"u. c #6194BC",
"i. c #6294BD",
"p. c #6296BF",
"a. c #5F94C0",
"s. c #6094C0",
"d. c #6194C0",
"f. c #6095C0",
"g. c #6095C1",
"h. c #659AC2",
"j. c #649AC3",
"k. c #659AC3",
"l. c #659BC3",
"z. c #679DC3",
"x. c #649AC4",
"c. c #649AC5",
"v. c #689CC0",
"b. c #689DC0",
"n. c #699DC1",
"m. c #689FC6",
"M. c #679FC8",
"N. c #679FC9",
"B. c #649ECD",
"V. c #649ECE",
"C. c #649FCE",
"Z. c #65A0CF",
"A. c #65A1CF",
"S. c #65A1D0",
"D. c #65A1D1",
"F. c #65A2D1",
"G. c #67A3D0",
"H. c #67A3D1",
"J. c #67A7D7",
"K. c #68A4D0",
"L. c #68A4D1",
"P. c #68A5D1",
"I. c #69A5D1",
"U. c #68A5D3",
"Y. c #68A6D3",
"T. c #68A7D4",
"R. c #69A7D4",
"E. c #69A7D5",
"W. c #68A8D7",
"Q. c #68A8D8",
"!. c #68A9DA",
"~. c #68A9DB",
"^. c #69AADA",
"/. c #68AADB",
"(. c #69AADB",
"). c #68AADC",
"_. c #69AADC",
"`. c #69ABDC",
"'. c None",
/* pixels */
"'.'.'.'.'.'.'.'.'.'.'.'.= O X $ @ . ; r '.'.'.'.'.'.'.'.'.'.'.'.",
"'.'.'.'.'.'.'.'.'.*.$.A f 9 9 0 9 9 f A $.=.'.'.'.'.'.'.'.'.'.'.",
"'.'.'.'.'.'.'.q ' t.z.c.g.a.s.s.s.a.g.c.z.e.` '.'.'.'.'.'.'.'.'.",
"'.'.'.'.'.'.j C :.v.T.)._.`.`.`.`.`._.).T.v.:.C g '.'.'.'.'.'.'.",
"'.'.'.'.'.2.i.x.N.K.W.~./._.`.`.`._./.~.W.K.N.x.i.<.'.'.'.'.'.'.",
"'.'.'.'.7.v.R.~.!.!.W.K.M.j.f.@.f.j.M.K.W.!.!.~.R.v.5.'.'.'.'.'.",
"'.'.'.I k.I.Q.!.!.~.E.n.:.C d 8 d C :.n.E.~.!.!.Q.I.k.K '.'.'.'.",
"'.'.i X.Z.~.!.!.J.V.d.1.) r & '.'.r _ 3.d.V.J.!.!.~.Z.X.i '.'.'.",
"'.'.E 0.G.!.!.(.F.o.b '.'.'.'.'.'.'.'.'.n o.F.(.!.!.G.0.W '.'.'.",
"'.*.8.v.U.!.J.C.+.B '.'.'.'.'.'.'.'.'.'.'.N O.C.J.!.U.v.8.-.'.'.",
"'.r.m.P.W.~.D.o.x '.'.'.'.'.'.'.'.'.'.'.'.'.c o.D.~.W.P.m.y.{ '.",
"~ w.H.~.W.I.l.J '.'.'.'.'.'.'.'.'.'.'.'.'.'.'.L l.I.W.~.H.q./ '.",
"a ..Z.).Y.v.7.( '.'.'.'.'.'.'.'.'.'.'.'.'.'.'.U 7.v.Y.).Z...a '.",
"> G C.(.G.9.Q '.'.'.'.'.'.'.'.'.'.'.'.'.'.'.'.'.^ 9.G.(.C.G < '.",
"2 H C.`.A. .p '.'.'.'.'.'.'.'.'.'.'.'.'.'.'.'.'.p  .A.`.C.H 5 '.",
"5 } C.`.C.F : '.'.'.'.'.'.'.'.'.'.'.'.'.'.'.'.'.< F C.`.C.} 7 '.",
"6 } C.`.C.F : '.'.'.'.'.'.'.'.'.'.'.'.'.'.'.'.'.< F C.`.C.} 5 '.",
"4 H C.`.A. .p '.'.'.'.'.'.'.'.'.'.'.'.'.'.'.'.'.u  .A.`.C.H 1 '.",
"< G C.(.G.9.~ '.'.'.'.'.'.'.'.'.'.'.'.'.'.'.'.'.! 9.G.(.C.G : '.",
"a X.A.).Y.v.7.Y '.'.'.'.'.'.'.'.'.'.'.'.'.'.'.U 7.v.Y.).Z...a '.",
"/ q.L./.W.P.l.K '.'.'.'.'.'.'.'.'.'.'.'.'.'.'.J l.I.W.~.H.q.~ '.",
"'.4.p.B.J.(.D.o.l '.'.'.'.'.'.'.'.'.'.'.'.'.z o.D.~.W.P.m.y.%.'.",
"'.s m o.S.^.J.C.+.V '.'.'.'.'.'.'.'.'.'.'.M O.C.J.!.U.v.8.&.'.'.",
"'.'., F V.~.!.(.F.o.n '.'.'.'.'.'.'.'.'.v o.F.(.!.!.G.0.R '.'.'.",
"'.'.3 H C./.!.!.J.V.d.1.) y *   % e ) 1.d.V.J.!.!.~.Z...w '.'.'.",
"'.'.'.| h.I.Q.!.!.~.E.n.:.C d 8 d C :.n.E.~.!.!.Q.I.k.P '.'.'.'.",
"'.'.'.'.5.b.R.~.!.!.W.K.M.j.f.@.f.j.M.K.W.!.!.~.R.v.6.'.'.'.'.'.",
"'.'.'.'.'.>.u.x.N.K.W.~./._.`.`.`._./.~.W.K.N.x.i.,.'.'.'.'.'.'.",
"'.'.'.'.'.'.h S :.v.T.)._.`.`.`.`.`._.).T.v.:.Z k '.'.'.'.'.'.'.",
"'.'.'.'.'.'.'.e [ t.z.c.g.a.s.s.s.a.g.c.z.e.] '.'.'.'.'.'.'.'.'.",
"'.'.'.'.'.'.'.'.'.'.#.D f 9 9 0 9 9 f A $.;.'.'.'.'.'.'.'.'.'.'.",
"'.'.'.'.'.'.'.'.'.'.'.'.'.X + # # o - t T '.'.'.'.'.'.'.'.'.'.'."
};
