/* XPM */
static char *result[] = {
/* columns rows colors chars-per-pixel */
"29 29 69 1 ",
"  c #391616",
". c #391717",
"X c #3A1717",
"o c #3E1515",
"O c #3F1515",
"+ c #3E1614",
"@ c #441413",
"# c #441414",
"$ c #441514",
"% c #4A1C13",
"& c #4B1C13",
"* c #4A1D14",
"= c #4E1C14",
"- c #4C1E15",
"; c #541C13",
": c #531C14",
"> c #501E15",
", c #501F15",
"< c #541D14",
"1 c #641E1A",
"2 c #651E1A",
"3 c #661E1A",
"4 c #661F1A",
"5 c #671F1A",
"6 c #661E1B",
"7 c #671E1B",
"8 c #671F1B",
"9 c #681B18",
"0 c #691B18",
"q c #6A1B18",
"w c #6B1B18",
"e c #691F1B",
"r c #6A1F1A",
"t c #6C1E18",
"y c #6D1E18",
"u c #6D1E19",
"i c #6E1E18",
"p c #6F1E18",
"a c #6C1D1A",
"s c #6C1E1A",
"d c #6D1E1A",
"f c #6D1F1A",
"g c #701C19",
"h c #711C19",
"j c #711D19",
"k c #721C19",
"l c #731D19",
"z c #731E19",
"x c #761D19",
"c c #741E19",
"v c #751E19",
"b c #771E19",
"n c #781D19",
"m c #791D19",
"M c #7A1D19",
"N c #7B1D19",
"B c #781E19",
"V c #791E19",
"C c #7A1E19",
"Z c #4D2016",
"A c #62211E",
"S c #65231D",
"D c #65221E",
"F c #65231E",
"G c #66231E",
"H c #69201B",
"J c #69211B",
"K c #6A201B",
"L c None",
/* pixels */
"LLLLLLLLLLLLLLLLLLLLLLLLLLLLL",
"LLLL7sLLLLLLLLLLLLLLLL5dLLLLL",
"LLLowk@LLLLLLLLLLLLLLOwk$LLLL",
"LL1jnVldLLLLLLLLLLLLejnVlaLLL",
"L+wMCCNv;LLLLLLLLLL>pCCCNl$LL",
"HgnCCCCVvfLLLLLLLL3zBCCCCVkdL",
"G0xMCCCCNl#LLLLLLOqMCCCCCnw5L",
"LX9mCCCCCVldLLLLKjnCCCCCCjOLL",
"LLFybCCCCCNv<%*=pCCCCCCBpKLLL",
"LLLZymMCCCCVvczcBCCCCCMz>LLLL",
"LLLLD9xMCCCCCCCCCCCCCnq3LLLLL",
"LLLLL.9mCCCCCCCCCCCCCjOLLLLLL",
"LLLLLLSibCCCCCCCCCCBpKLLLLLLL",
"LLLLLLL-iVCCCCCCCCCc=LLLLLLLL",
"LLLLLLLLtVCCCCCCCCCz*LLLLLLLL",
"LLLLLLLLyVCCCCCCCCCc&LLLLLLLL",
"LLLLLLL,pVCCCCCCCCCv<LLLLLLLL",
"LLLLLL4zBCCCCCCCCCCVvdLLLLLLL",
"LLLLLOqMCCCCCCCCCCCCNl#LLLLLL",
"LLLLrjnCCCCCVVVVCCCCCVldLLLLL",
"LLL>pCCCCCCBpytibCCCCCNv:LLLL",
"LL6zBCCCCCMz,LL-imMCCCCVvuLLL",
"LoqMCCCCCnq4LLLLS9xMCCCCNl$LL",
"JgnCCCCCCjOLLLLLL.9mCCCCCVkdL",
"G0xMCCCBprLLLLLLLLDybCCCCnw8L",
"L 0nMCMz>LLLLLLLLLLZymMCMhOLL",
"LLA0xnq6LLLLLLLLLLLLF9xnw2LLL",
"LLL 0goLLLLLLLLLLLLLLX0gOLLLL",
"LLLLGJLLLLLLLLLLLLLLLLGKLLLLL"
};
